<svg id="Assure-logo-horizontal" xmlns="http://www.w3.org/2000/svg" width="280" height="38" viewBox="0 0 280 38">
  <path id="Fill_7" data-name="Fill 7" d="M13.684,0,0,37.433H8.07L17.319,10.7l2.774,8.059h7.7L20.953,0Z" transform="translate(0)" fill="#6668ad"/>
  <path id="Fill_8" data-name="Fill 8" d="M4.433,11.962H12.2L8.06,0H0Z" transform="translate(21.886 25.47)" fill="#6668ad"/>
  <path id="Fill_9" data-name="Fill 9" d="M0,0,2.15,6.714h7.9L7.764,0" transform="translate(27.796 18.757)" fill="#6668ad"/>
  <path id="Fill_10" data-name="Fill 10" d="M4.249,22.2H0L9.985,0h4.059L24.057,22.193l-4.306,0-2.222-5.136H6.436L4.249,22.195ZM11.983,4.122l-4.153,9.7h8.336Z" transform="translate(44.579 9.172)" fill="#fff"/>
  <path id="Fill_11" data-name="Fill 11" d="M3.135,16.818A10.117,10.117,0,0,1,0,15.454l1.516-3.012a9.751,9.751,0,0,0,2.744,1.22,11.355,11.355,0,0,0,3.154.461q3.549,0,3.551-1.873a1.251,1.251,0,0,0-.9-1.236,15.618,15.618,0,0,0-2.9-.666,23.7,23.7,0,0,1-3.408-.729A5.257,5.257,0,0,1,1.471,8.177,4.037,4.037,0,0,1,.5,5.307,4.516,4.516,0,0,1,2.517,1.454,9.175,9.175,0,0,1,7.954.013a15.762,15.762,0,0,1,3.487.4A9.792,9.792,0,0,1,14.294,1.47L12.77,4.484A9.378,9.378,0,0,0,7.92,3.216a5.366,5.366,0,0,0-2.644.522,1.561,1.561,0,0,0-.907,1.379,1.375,1.375,0,0,0,.968,1.348,15.324,15.324,0,0,0,3,.745,23.228,23.228,0,0,1,3.327.73,5.2,5.2,0,0,1,2.236,1.4,3.889,3.889,0,0,1,.934,2.79,4.418,4.418,0,0,1-2.059,3.805,9.717,9.717,0,0,1-5.61,1.427,15.223,15.223,0,0,1-4.025-.535" transform="translate(69.622 14.233)" fill="#fff"/>
  <path id="Fill_12" data-name="Fill 12" d="M3.135,16.818A10.117,10.117,0,0,1,0,15.454l1.516-3.012a9.765,9.765,0,0,0,2.744,1.22,11.353,11.353,0,0,0,3.153.461q3.552,0,3.552-1.873a1.249,1.249,0,0,0-.9-1.236,15.618,15.618,0,0,0-2.9-.666,23.7,23.7,0,0,1-3.408-.729A5.237,5.237,0,0,1,1.472,8.177,4.027,4.027,0,0,1,.5,5.307,4.513,4.513,0,0,1,2.517,1.454,9.176,9.176,0,0,1,7.955.013a15.752,15.752,0,0,1,3.486.4A9.792,9.792,0,0,1,14.294,1.47L12.769,4.484A9.361,9.361,0,0,0,7.92,3.216a5.366,5.366,0,0,0-2.644.522,1.559,1.559,0,0,0-.907,1.379,1.376,1.376,0,0,0,.969,1.348,15.294,15.294,0,0,0,2.994.745,23.243,23.243,0,0,1,3.329.73,5.205,5.205,0,0,1,2.235,1.4,3.89,3.89,0,0,1,.934,2.79,4.413,4.413,0,0,1-2.061,3.805,9.708,9.708,0,0,1-5.608,1.427,15.229,15.229,0,0,1-4.025-.535" transform="translate(85.944 14.233)" fill="#fff"/>
  <path id="Fill_13" data-name="Fill 13" d="M16.513,0V16.932H12.74V14.775a6.287,6.287,0,0,1-2.376,1.761,7.654,7.654,0,0,1-3.075.618,7.359,7.359,0,0,1-5.342-1.886A7.454,7.454,0,0,1,0,9.67V0H3.962V9.132a4.92,4.92,0,0,0,1.028,3.41,3.778,3.778,0,0,0,2.932,1.124A4.435,4.435,0,0,0,11.3,12.351a5.279,5.279,0,0,0,1.256-3.788V0Z" transform="translate(102.804 14.436)" fill="#fff"/>
  <path id="Fill_14" data-name="Fill 14" d="M9.793,0V3.774a4.939,4.939,0,0,0-.92-.1A4.784,4.784,0,0,0,5.26,5.026a5.371,5.371,0,0,0-1.3,3.884v8.216H0V.189H3.769V2.663Q5.483,0,9.793,0" transform="translate(121.981 14.246)" fill="#fff"/>
  <path id="Fill_15" data-name="Fill 15" d="M9.133,17.345a10.5,10.5,0,0,1-4.692-1.112,7.97,7.97,0,0,1-3.28-3.092A8.75,8.75,0,0,1,0,8.655,8.887,8.887,0,0,1,1.127,4.194a8,8,0,0,1,3.12-3.085A9.138,9.138,0,0,1,8.606,0H8.9a8.909,8.909,0,0,1,4.273,1.095,7.744,7.744,0,0,1,3.044,3.076,9.367,9.367,0,0,1,1.092,4.582c0,.27-.02.654-.063,1.174H3.967a4.575,4.575,0,0,0,1.821,2.965,5.946,5.946,0,0,0,3.45,1.1c.069,0,.14,0,.21,0s.133,0,.2,0a6.206,6.206,0,0,0,4.4-1.842l2.122,2.441a7.171,7.171,0,0,1-2.882,2.06,10.49,10.49,0,0,1-3.769.7H9.355ZM8.618,3.166a4.692,4.692,0,0,0-4.69,4.127h9.609a4.675,4.675,0,0,0-1.553-2.979,4.731,4.731,0,0,0-3.09-1.148l-.141,0Z" transform="translate(132.943 14.244)" fill="#fff"/>
  <path id="Fill_16" data-name="Fill 16" d="M7.8,2.029H0V0H17.942V2.029h-7.8V22.2H7.8Z" transform="translate(151.581 9.173)" fill="#fff"/>
  <path id="Fill_17" data-name="Fill 17" d="M8.568,16.972a9.265,9.265,0,0,1-4.366-1.1,7.839,7.839,0,0,1-3.09-3.031A8.646,8.646,0,0,1,0,8.467,8.957,8.957,0,0,1,1.063,4.091,7.679,7.679,0,0,1,3.977,1.08,8.16,8.16,0,0,1,8.03,0h.239A8.069,8.069,0,0,1,12.3,1.08a7.627,7.627,0,0,1,2.887,3,9.047,9.047,0,0,1,1.046,4.39l-.031.7H2.253a5.991,5.991,0,0,0,1.993,4.2,6.638,6.638,0,0,0,4.333,1.611c.077,0,.156,0,.233,0H8.89a7.148,7.148,0,0,0,2.774-.556,6.263,6.263,0,0,0,2.25-1.632l1.271,1.453A7.166,7.166,0,0,1,12.41,16.27a9.319,9.319,0,0,1-3.557.7h-.1ZM7.992,1.933a5.651,5.651,0,0,0-3.885,1.54A6.028,6.028,0,0,0,2.253,7.487H14.074a6.026,6.026,0,0,0-1.853-4.014,5.7,5.7,0,0,0-3.9-1.541l-.17,0Z" transform="translate(166.826 14.561)" fill="#fff"/>
  <path id="Fill_18" data-name="Fill 18" d="M4.168,15.887A7.8,7.8,0,0,1,1.111,12.86,8.735,8.735,0,0,1,0,8.468a8.636,8.636,0,0,1,1.11-4.375A7.818,7.818,0,0,1,4.168,1.08,9,9,0,0,1,8.591,0a8.577,8.577,0,0,1,3.852.841A6.405,6.405,0,0,1,15.117,3.3l-1.68,1.141a5.267,5.267,0,0,0-2.089-1.854,6.184,6.184,0,0,0-2.757-.618,6.5,6.5,0,0,0-3.245.808,5.653,5.653,0,0,0-2.254,2.3,7,7,0,0,0-.809,3.39,6.969,6.969,0,0,0,.809,3.412,5.687,5.687,0,0,0,2.254,2.282,6.5,6.5,0,0,0,3.248.809,6.328,6.328,0,0,0,2.757-.6,5.129,5.129,0,0,0,2.088-1.837L15.12,13.67a6.369,6.369,0,0,1-2.694,2.455,8.575,8.575,0,0,1-3.834.839,8.981,8.981,0,0,1-4.424-1.077" transform="translate(184.702 14.56)" fill="#fff"/>
  <path id="Fill_19" data-name="Fill 19" d="M13.488,8.546a7.122,7.122,0,0,1,1.854,5.311v9.67H13.091V14.078a5.535,5.535,0,0,0-1.3-3.963A4.885,4.885,0,0,0,8.084,8.751a5.7,5.7,0,0,0-4.263,1.606,6.058,6.058,0,0,0-1.569,4.424v8.751H0V0H2.251V9.767A6.125,6.125,0,0,1,4.787,7.516a8.349,8.349,0,0,1,3.707-.795,6.82,6.82,0,0,1,4.993,1.824" transform="translate(202.071 7.84)" fill="#fff"/>
  <path id="Fill_20" data-name="Fill 20" d="M13.487,1.833a7.118,7.118,0,0,1,1.856,5.311v9.67H13.091V7.366A5.53,5.53,0,0,0,11.79,3.4,4.88,4.88,0,0,0,8.082,2.038,5.7,5.7,0,0,0,3.821,3.644a6.054,6.054,0,0,0-1.57,4.424v8.751H0V.137H2.155V3.211A6.26,6.26,0,0,1,4.708.85,8.18,8.18,0,0,1,8.493.009a6.819,6.819,0,0,1,4.993,1.824" transform="translate(220.359 14.553)" fill="#fff"/>
  <path id="Fill_21" data-name="Fill 21" d="M2.756,23.526H.507V6.847H2.756V23.525ZM1.683,3.2H1.616A1.6,1.6,0,0,1,.477,2.727,1.573,1.573,0,0,1,0,1.586,1.537,1.537,0,0,1,.477.475,1.6,1.6,0,0,1,1.613,0h.079a1.61,1.61,0,0,1,1.13.46A1.484,1.484,0,0,1,3.3,1.554,1.627,1.627,0,0,1,1.683,3.2Z" transform="translate(238.14 7.84)" fill="#fff"/>
  <path id="Fill_22" data-name="Fill 22" d="M4.169,15.887A7.785,7.785,0,0,1,1.111,12.86,8.71,8.71,0,0,1,0,8.468a8.614,8.614,0,0,1,1.11-4.375A7.818,7.818,0,0,1,4.169,1.08,9,9,0,0,1,8.59,0a8.569,8.569,0,0,1,3.851.841A6.385,6.385,0,0,1,15.115,3.3l-1.68,1.141a5.272,5.272,0,0,0-2.088-1.854A6.177,6.177,0,0,0,8.59,1.968a6.531,6.531,0,0,0-3.245.808,5.657,5.657,0,0,0-2.253,2.3,6.97,6.97,0,0,0-.81,3.39,6.958,6.958,0,0,0,.81,3.412,5.677,5.677,0,0,0,2.253,2.282,6.512,6.512,0,0,0,3.249.809,6.352,6.352,0,0,0,2.758-.6,5.148,5.148,0,0,0,2.087-1.837L15.12,13.67a6.372,6.372,0,0,1-2.695,2.455,8.567,8.567,0,0,1-3.833.839,8.978,8.978,0,0,1-4.424-1.077" transform="translate(243.591 14.56)" fill="#fff"/>
  <path id="Fill_23" data-name="Fill 23" d="M5.716,16.989a6.894,6.894,0,0,1-4.067-1.34A4.321,4.321,0,0,1,0,12.13,4.244,4.244,0,0,1,1.538,8.7c1.02-.862,2.668-1.3,4.9-1.3h5.294V6.391a4.279,4.279,0,0,0-1.2-3.282A4.984,4.984,0,0,0,7.358,1.97c-.117,0-.236,0-.353.013H6.971A8.914,8.914,0,0,0,3.962,2.5a7.653,7.653,0,0,0-2.5,1.445L.449,2.268A8.981,8.981,0,0,1,3.486.6a11.927,11.927,0,0,1,3.7-.586h.037C7.383.005,7.542,0,7.7,0a7.065,7.065,0,0,1,4.536,1.65,6.321,6.321,0,0,1,1.742,4.835V16.822H11.825v-2.6A5.173,5.173,0,0,1,9.59,16.253a7.892,7.892,0,0,1-3.3.729l-.208,0C5.963,16.986,5.839,16.989,5.716,16.989Zm.783-7.9a5.667,5.667,0,0,0-3.211.745,2.554,2.554,0,0,0-1.07,2.235,2.73,2.73,0,0,0,1.11,2.3,5.046,5.046,0,0,0,2.805.849c.1,0,.2,0,.3-.009l.166,0a5.924,5.924,0,0,0,3.1-.874,5.188,5.188,0,0,0,2.029-2.521V9.086Z" transform="translate(260.453 14.545)" fill="#fff"/>
  <path id="Fill_24" data-name="Fill 24" d="M0,23.527H2.25V0H0Z" transform="translate(277.378 7.841)" fill="#fff"/>
</svg>
